<?xml version="1.0" encoding="utf-8"?>
<svg xmlns="http://www.w3.org/2000/svg"
	xmlns:xlink="http://www.w3.org/1999/xlink"
	width="25px" height="19px">
<path fill="#A8D4E9" fill-rule="evenodd" d="M 13.33 15.63C 13.33 15.63 13.23 15.41 13.23 15.41 13.23 15.41 13.17 15.23 13.17 15.23 13.17 15.23 13.07 14.91 13.07 14.91 13.07 14.91 13.01 14.66 13.01 14.66 13.01 14.66 12.99 14.56 12.99 14.56 12.99 14.56 13.01 14.5 13.01 14.5 13.01 14.5 12.87 14.36 12.87 14.36 12.87 14.36 12.78 14.18 12.78 14.18 12.78 14.18 12.68 13.94 12.68 13.94 12.68 13.94 12.62 13.67 12.62 13.67 12.62 13.67 12.54 13.37 12.54 13.37 12.54 13.37 12.46 13.15 12.46 13.15 12.46 13.15 12.34 12.97 12.34 12.97 12.34 12.97 12.21 12.83 12.21 12.83 12.21 12.83 11.07 11.84 11.07 11.84 11.07 11.84 10.89 11.68 10.89 11.68 10.89 11.68 10.79 11.53 10.79 11.53 10.79 11.53 10.73 11.37 10.73 11.37 10.73 11.37 10.75 11.25 10.75 11.25 10.75 11.25 10.79 11.09 10.79 11.09 10.79 11.09 10.91 10.97 10.91 10.97 10.91 10.97 11.07 10.81 11.07 10.81 11.07 10.81 11.3 10.69 11.3 10.69 11.3 10.69 11.3 10.67 11.3 10.67 11.3 10.67 11.44 10.67 11.44 10.67 11.44 10.67 11.56 10.59 11.56 10.59 11.56 10.59 11.64 10.46 11.64 10.46 11.64 10.46 11.71 10.28 11.71 10.28 11.71 10.28 11.77 10.08 11.77 10.08 11.77 10.08 11.89 9.96 11.89 9.96 11.89 9.96 12.03 9.88 12.03 9.88 12.03 9.88 12.21 9.86 12.21 9.86 12.21 9.86 12.21 9.72 12.21 9.72 12.21 9.72 12.19 9.6 12.19 9.6 12.19 9.6 12.15 9.52 12.15 9.52 12.15 9.52 12.11 9.46 12.11 9.46 12.11 9.46 12.05 9.38 12.05 9.38 12.05 9.38 12.01 9.32 12.01 9.32 12.01 9.32 11.87 9.17 11.87 9.17 11.87 9.17 11.79 9.03 11.79 9.03 11.79 9.03 11.75 8.89 11.75 8.89 11.75 8.89 11.79 8.77 11.79 8.77 11.79 8.77 12.21 8.45 12.21 8.45 12.21 8.45 12.13 7.84 12.13 7.84 12.13 7.84 12.05 7.3 12.05 7.3 12.05 7.3 11.97 6.79 11.97 6.79 11.97 6.79 11.91 6.33 11.91 6.33 11.91 6.33 11.83 5.88 11.83 5.88 11.83 5.88 11.75 5.5 11.75 5.5 11.75 5.5 11.67 5.16 11.67 5.16 11.67 5.16 11.62 4.87 11.62 4.87 11.62 4.87 11.36 4.59 11.36 4.59 11.36 4.59 11.13 4.27 11.13 4.27 11.13 4.27 10.91 3.83 10.91 3.83 10.91 3.83 10.71 3.36 10.71 3.36 10.71 3.36 10.52 2.82 10.52 2.82 10.52 2.82 10.32 2.41 10.32 2.41 10.32 2.41 10.12 2.07 10.12 2.07 10.12 2.07 9.93 1.85 9.93 1.85 9.93 1.85 9.3 0.7 9.3 0.7 9.3 0.7 9.06 0.39 9.06 0.39 9.06 0.39 8.92 0.27 8.92 0.27 8.92 0.27 8.81 0.19 8.81 0.19 8.81 0.19 8.65 0.09 8.65 0.09 8.65 0.09 8.51 0.03 8.51 0.03 8.51 0.03 8.35-0.01 8.35-0.01 8.35-0.01 8.22-0.01 8.22-0.01 8.22-0.01 4.86 1.67 4.86 1.67 4.86 1.67 4.45 1.67 4.45 1.67 4.45 1.67 4.29 1.66 4.29 1.66 4.29 1.66 4.17 1.66 4.17 1.66 4.17 1.66 4.05 1.61 4.05 1.61 4.05 1.61 3.99 1.58 3.99 1.58 3.99 1.58 3.93 1.52 3.93 1.52 3.93 1.52 3.93 1.46 3.93 1.46 3.93 1.46 3.82 1.42 3.82 1.42 3.82 1.42 3.74 1.44 3.74 1.44 3.74 1.44 3.64 1.58 3.64 1.58 3.64 1.58 3.56 1.67 3.56 1.67 3.56 1.67 3.5 1.75 3.5 1.75 3.5 1.75 3.46 1.81 3.46 1.81 3.46 1.81 3.44 1.85 3.44 1.85 3.44 1.85 3.31 1.85 3.31 1.85 3.31 1.85 3.31 1.87 3.31 1.87 3.31 1.87 3.17 1.87 3.17 1.87 3.17 1.87 3.17 1.89 3.17 1.89 3.17 1.89 2.85 1.89 2.85 1.89 2.85 1.89 2.23 1.81 2.23 1.81 2.23 1.81 2.11 1.81 2.11 1.81 2.11 1.81 2.07 1.79 2.07 1.79 2.07 1.79 2.01 1.79 2.01 1.79 2.01 1.79 1.87 1.75 1.87 1.75 1.87 1.75 1.75 1.71 1.75 1.71 1.75 1.71 1.59 1.63 1.59 1.63 1.59 1.63 1.52 1.58 1.52 1.58 1.52 1.58 1.46 1.54 1.46 1.54 1.46 1.54 1.28 1.42 1.28 1.42 1.28 1.42 1.12 1.3 1.12 1.3 1.12 1.3 0.81 1.08 0.81 1.08 0.81 1.08 0.54 0.98 0.54 0.98 0.54 0.98 0.28 1 0.28 1 0.28 1 0.08 1.14 0.08 1.14 0.08 1.14 0.02 1.3 0.02 1.3 0.02 1.3 0 1.5 0 1.5 0 1.5 0.06 1.89 0.06 1.89 0.06 1.89 0.12 2.05 0.12 2.05 0.12 2.05 0.26 2.25 0.26 2.25 0.26 2.25 0.59 2.65 0.59 2.65 0.59 2.65 0.81 2.88 0.81 2.88 0.81 2.88 0.91 2.98 0.91 2.98 0.91 2.98 1.03 3.1 1.03 3.1 1.03 3.1 1.2 3.3 1.2 3.3 1.2 3.3 1.36 3.48 1.36 3.48 1.36 3.48 1.48 3.62 1.48 3.62 1.48 3.62 1.58 3.74 1.58 3.74 1.58 3.74 1.65 3.83 1.65 3.83 1.65 3.83 1.71 3.91 1.71 3.91 1.71 3.91 1.81 3.99 1.81 3.99 1.81 3.99 1.87 4.01 1.87 4.01 1.87 4.01 1.97 4.05 1.97 4.05 1.97 4.05 2.19 4.07 2.19 4.07 2.19 4.07 2.3 4.07 2.3 4.07 2.3 4.07 2.46 4.09 2.46 4.09 2.46 4.09 2.56 4.07 2.56 4.07 2.56 4.07 2.68 4.09 2.68 4.09 2.68 4.09 2.75 4.11 2.75 4.11 2.75 4.11 2.85 4.17 2.85 4.17 2.85 4.17 2.97 4.31 2.97 4.31 2.97 4.31 3.01 4.41 3.01 4.41 3.01 4.41 3.05 4.55 3.05 4.55 3.05 4.55 3.23 4.59 3.23 4.59 3.23 4.59 3.31 4.59 3.31 4.59 3.31 4.59 3.42 4.57 3.42 4.57 3.42 4.57 3.5 4.51 3.5 4.51 3.5 4.51 3.62 4.43 3.62 4.43 3.62 4.43 3.85 4.23 3.85 4.23 3.85 4.23 3.95 3.99 3.95 3.99 3.95 3.99 4.09 3.79 4.09 3.79 4.09 3.79 4.25 3.62 4.25 3.62 4.25 3.62 4.46 3.48 4.46 3.48 4.46 3.48 4.68 3.32 4.68 3.32 4.68 3.32 4.96 3.2 4.96 3.2 4.96 3.2 5.25 3.1 5.25 3.1 5.25 3.1 5.58 3.04 5.58 3.04 5.58 3.04 5.66 3 5.66 3 5.66 3 5.7 2.98 5.7 2.98 5.7 2.98 5.76 2.98 5.76 2.98 5.76 2.98 5.96 2.94 5.96 2.94 5.96 2.94 6.29 2.86 6.29 2.86 6.29 2.86 6.35 2.82 6.35 2.82 6.35 2.82 6.59 2.76 6.59 2.76 6.59 2.76 6.88 2.69 6.88 2.69 6.88 2.69 7.1 2.57 7.1 2.57 7.1 2.57 7.14 2.53 7.14 2.53 7.14 2.53 7.14 2.51 7.14 2.51 7.14 2.51 7.19 2.51 7.19 2.51 7.19 2.51 7.32 2.47 7.32 2.47 7.32 2.47 7.49 2.35 7.49 2.35 7.49 2.35 7.63 2.27 7.63 2.27 7.63 2.27 7.94 3.78 7.94 3.78 7.94 3.78 8.18 4.47 8.18 4.47 8.18 4.47 8.18 4.61 8.18 4.61 8.18 4.61 8.2 4.65 8.2 4.65 8.2 4.65 8.2 4.79 8.2 4.79 8.2 4.79 8.22 4.83 8.22 4.83 8.22 4.83 8.2 4.98 8.2 4.98 8.2 4.98 8.16 5.14 8.16 5.14 8.16 5.14 8.14 5.56 8.14 5.56 8.14 5.56 8.16 5.98 8.16 5.98 8.16 5.98 8.22 6.35 8.22 6.35 8.22 6.35 8.31 6.69 8.31 6.69 8.31 6.69 8.45 6.97 8.45 6.97 8.45 6.97 8.63 7.22 8.63 7.22 8.63 7.22 8.85 7.44 8.85 7.44 8.85 7.44 9.12 7.62 9.12 7.62 9.12 7.62 8.98 7.76 8.98 7.76 8.98 7.76 8.98 7.9 8.98 7.9 8.98 7.9 8.94 7.94 8.94 7.94 8.94 7.94 8.92 7.94 8.92 7.94 8.92 7.94 8.92 8 8.92 8 8.92 8 8.81 8.08 8.81 8.08 8.81 8.08 8.75 8.08 8.75 8.08 8.75 8.08 8.71 8.1 8.71 8.1 8.71 8.1 8.63 8.14 8.63 8.14 8.63 8.14 8.45 8.16 8.45 8.16 8.45 8.16 8.38 8.25 8.38 8.25 8.38 8.25 8.35 8.35 8.35 8.35 8.35 8.35 8.43 8.53 8.43 8.53 8.43 8.53 8.41 8.53 8.41 8.53 8.41 8.53 8.41 8.67 8.41 8.67 8.41 8.67 8.4 8.83 8.4 8.83 8.4 8.83 8.35 8.95 8.35 8.95 8.35 8.95 8.29 9.07 8.29 9.07 8.29 9.07 8.2 9.15 8.2 9.15 8.2 9.15 8.08 9.23 8.08 9.23 8.08 9.23 7.94 9.27 7.94 9.27 7.94 9.27 7.8 9.31 7.8 9.31 7.8 9.31 7.45 10 7.45 10 7.45 10 7.21 10.77 7.21 10.77 7.21 10.77 7.04 10.81 7.04 10.81 7.04 10.81 6.92 10.83 6.92 10.83 6.92 10.83 6.82 10.81 6.82 10.81 6.82 10.81 6.76 10.77 6.76 10.77 6.76 10.77 6.8 10.71 6.8 10.71 6.8 10.71 6.86 10.63 6.86 10.63 6.86 10.63 6.86 10.59 6.86 10.59 6.86 10.59 6.88 10.55 6.88 10.55 6.88 10.55 6.88 10.49 6.88 10.49 6.88 10.49 6.9 10.46 6.9 10.46 6.9 10.46 6.84 10.38 6.84 10.38 6.84 10.38 6.74 10.3 6.74 10.3 6.74 10.3 6.61 10.18 6.61 10.18 6.61 10.18 6.43 10.06 6.43 10.06 6.43 10.06 5.82 9.96 5.82 9.96 5.82 9.96 5.55 9.98 5.55 9.98 5.55 9.98 5.29 10.04 5.29 10.04 5.29 10.04 4.8 10.26 4.8 10.26 4.8 10.26 4.56 10.44 4.56 10.44 4.56 10.44 4.35 10.65 4.35 10.65 4.35 10.65 4.21 10.87 4.21 10.87 4.21 10.87 4.13 11.09 4.13 11.09 4.13 11.09 4.05 11.29 4.05 11.29 4.05 11.29 4.01 11.49 4.01 11.49 4.01 11.49 3.97 11.64 3.97 11.64 3.97 11.64 3.99 11.8 3.99 11.8 3.99 11.8 4.01 11.92 4.01 11.92 4.01 11.92 4.07 12.06 4.07 12.06 4.07 12.06 4.58 12.75 4.58 12.75 4.58 12.75 4.74 12.89 4.74 12.89 4.74 12.89 4.91 13.01 4.91 13.01 4.91 13.01 5.11 13.05 5.11 13.05 5.11 13.05 5.35 13.07 5.35 13.07 5.35 13.07 5.52 13.25 5.52 13.25 5.52 13.25 5.74 13.39 5.74 13.39 5.74 13.39 6 13.47 6 13.47 6 13.47 6.31 13.49 6.31 13.49 6.31 13.49 7.43 13.39 7.43 13.39 7.43 13.39 7.43 14.22 7.43 14.22 7.43 14.22 7.39 14.74 7.39 14.74 7.39 14.74 7.35 15.31 7.35 15.31 7.35 15.31 7.21 17.23 7.21 17.23 7.21 17.23 7.14 17.33 7.14 17.33 7.14 17.33 7.08 17.45 7.08 17.45 7.08 17.45 7 17.55 7 17.55 7 17.55 6.92 17.67 6.92 17.67 6.92 17.67 6.8 17.75 6.8 17.75 6.8 17.75 6.71 17.83 6.71 17.83 6.71 17.83 6.63 17.85 6.63 17.85 6.63 17.85 6.57 17.89 6.57 17.89 6.57 17.89 6.45 17.97 6.45 17.97 6.45 17.97 5.41 18.36 5.41 18.36 5.41 18.36 5.39 18.4 5.39 18.4 5.39 18.4 5.41 18.5 5.41 18.5 5.41 18.5 5.45 18.64 5.45 18.64 5.45 18.64 5.55 18.84 5.55 18.84 5.55 18.84 5.96 18.84 5.96 18.84 5.96 18.84 6.13 18.8 6.13 18.8 6.13 18.8 6.29 18.76 6.29 18.76 6.29 18.76 6.41 18.68 6.41 18.68 6.41 18.68 6.53 18.6 6.53 18.6 6.53 18.6 6.63 18.48 6.63 18.48 6.63 18.48 6.71 18.38 6.71 18.38 6.71 18.38 6.94 18.32 6.94 18.32 6.94 18.32 7.18 18.24 7.18 18.24 7.18 18.24 7.39 18.13 7.39 18.13 7.39 18.13 7.49 18.05 7.49 18.05 7.49 18.05 7.61 17.99 7.61 17.99 7.61 17.99 7.77 17.81 7.77 17.81 7.77 17.81 7.94 17.61 7.94 17.61 7.94 17.61 8 17.49 8 17.49 8 17.49 8.08 17.39 8.08 17.39 8.08 17.39 8.1 17.31 8.1 17.31 8.1 17.31 8.14 17.25 8.14 17.25 8.14 17.25 8.22 17.13 8.22 17.13 8.22 17.13 8.81 15.13 8.81 15.13 8.81 15.13 8.81 14.74 8.81 14.74 8.81 14.74 8.83 14.74 8.83 14.74 8.83 14.74 8.83 13.75 8.83 13.75 8.83 13.75 8.85 13.75 8.85 13.75 8.85 13.75 8.83 13.53 8.83 13.53 8.83 13.53 8.87 13.35 8.87 13.35 8.87 13.35 8.92 13.19 8.92 13.19 8.92 13.19 9.04 13.09 9.04 13.09 9.04 13.09 9.14 12.99 9.14 12.99 9.14 12.99 9.3 12.93 9.3 12.93 9.3 12.93 9.48 12.89 9.48 12.89 9.48 12.89 9.71 12.89 9.71 12.89 9.71 12.89 9.95 12.93 9.95 12.93 9.95 12.93 10.2 13.03 10.2 13.03 10.2 13.03 10.44 13.17 10.44 13.17 10.44 13.17 10.67 13.35 10.67 13.35 10.67 13.35 10.87 13.55 10.87 13.55 10.87 13.55 11.08 13.81 11.08 13.81 11.08 13.81 11.28 14.1 11.28 14.1 11.28 14.1 11.48 14.44 11.48 14.44 11.48 14.44 11.6 14.56 11.6 14.56 11.6 14.56 11.74 14.74 11.74 14.74 11.74 14.74 11.85 14.95 11.85 14.95 11.85 14.95 12.01 15.21 12.01 15.21 12.01 15.21 12.13 15.45 12.13 15.45 12.13 15.45 12.25 15.67 12.25 15.67 12.25 15.67 12.36 15.85 12.36 15.85 12.36 15.85 12.52 15.98 12.52 15.98 12.52 15.98 12.32 16.26 12.32 16.26 12.32 16.26 12.09 16.54 12.09 16.54 12.09 16.54 11.93 16.66 11.93 16.66 11.93 16.66 11.85 16.72 11.85 16.72 11.85 16.72 11.79 16.8 11.79 16.8 11.79 16.8 11.64 16.92 11.64 16.92 11.64 16.92 11.48 17.06 11.48 17.06 11.48 17.06 11.46 17.13 11.46 17.13 11.46 17.13 11.5 17.21 11.5 17.21 11.5 17.21 11.54 17.27 11.54 17.27 11.54 17.27 11.64 17.33 11.64 17.33 11.64 17.33 11.71 17.35 11.71 17.35 11.71 17.35 11.85 17.37 11.85 17.37 11.85 17.37 12.21 17.37 12.21 17.37 12.21 17.37 12.27 17.29 12.27 17.29 12.27 17.29 12.4 17.25 12.4 17.25 12.4 17.25 12.58 17.17 12.58 17.17 12.58 17.17 12.84 17.13 12.84 17.13 12.84 17.13 12.97 17.06 12.97 17.06 12.97 17.06 12.99 17.02 12.99 17.02 12.99 17.02 13.03 17 13.03 17 13.03 17 13.09 16.96 13.09 16.96 13.09 16.96 13.11 16.88 13.11 16.88 13.11 16.88 13.11 16.82 13.11 16.82 13.11 16.82 13.13 16.82 13.13 16.82 13.13 16.82 13.13 16.68 13.13 16.68 13.13 16.68 13.15 16.68 13.15 16.68 13.15 16.68 13.23 16.56 13.23 16.56 13.23 16.56 13.3 16.46 13.3 16.46 13.3 16.46 13.33 16.38 13.33 16.38 13.33 16.38 13.36 16.32 13.36 16.32 13.36 16.32 13.41 16.2 13.41 16.2 13.41 16.2 13.41 15.93 13.41 15.93 13.41 15.93 13.36 15.77 13.36 15.77 13.36 15.77 13.33 15.63 13.33 15.63ZM 24.94 7.9C 24.94 7.9 24.86 7.5 24.86 7.5 24.86 7.5 24.8 7.26 24.8 7.26 24.8 7.26 24.72 7.05 24.72 7.05 24.72 7.05 24.49 6.49 24.49 6.49 24.49 6.49 24.41 6.33 24.41 6.33 24.41 6.33 24.37 6.25 24.37 6.25 24.37 6.25 24.35 6.21 24.35 6.21 24.35 6.21 24.35 6.19 24.35 6.19 24.35 6.19 24.27 6.04 24.27 6.04 24.27 6.04 24.23 5.96 24.23 5.96 24.23 5.96 24.21 5.92 24.21 5.92 24.21 5.92 24.21 5.9 24.21 5.9 24.21 5.9 23.94 5.28 23.94 5.28 23.94 5.28 23.74 4.75 23.74 4.75 23.74 4.75 23.62 4.25 23.62 4.25 23.62 4.25 23.58 3.83 23.58 3.83 23.58 3.83 23.27 3.88 23.27 3.88 23.27 3.88 22.99 3.89 22.99 3.89 22.99 3.89 22.74 3.83 22.74 3.83 22.74 3.83 22.52 3.78 22.52 3.78 22.52 3.78 22.28 3.64 22.28 3.64 22.28 3.64 22.09 3.48 22.09 3.48 22.09 3.48 21.91 3.26 21.91 3.26 21.91 3.26 21.77 3 21.77 3 21.77 3 21.58 2.63 21.58 2.63 21.58 2.63 21.4 2.29 21.4 2.29 21.4 2.29 21.22 1.99 21.22 1.99 21.22 1.99 21.09 1.75 21.09 1.75 21.09 1.75 20.93 1.54 20.93 1.54 20.93 1.54 20.81 1.4 20.81 1.4 20.81 1.4 20.69 1.28 20.69 1.28 20.69 1.28 20.59 1.22 20.59 1.22 20.59 1.22 20.46 1.2 20.46 1.2 20.46 1.2 20.3 1.22 20.3 1.22 20.3 1.22 20.12 1.26 20.12 1.26 20.12 1.26 19.93 1.32 19.93 1.32 19.93 1.32 19.69 1.38 19.69 1.38 19.69 1.38 19.44 1.48 19.44 1.48 19.44 1.48 19.14 1.58 19.14 1.58 19.14 1.58 18.83 1.71 18.83 1.71 18.83 1.71 17.94 2.03 17.94 2.03 17.94 2.03 17.14 2.27 17.14 2.27 17.14 2.27 16.37 2.43 16.37 2.43 16.37 2.43 15.64 2.53 15.64 2.53 15.64 2.53 14.96 2.53 14.96 2.53 14.96 2.53 14.31 2.49 14.31 2.49 14.31 2.49 13.7 2.37 13.7 2.37 13.7 2.37 13.41 2.27 13.41 2.27 13.41 2.27 13.15 2.17 13.15 2.17 13.15 2.17 12.78 1.67 12.78 1.67 12.78 1.67 12.62 1.54 12.62 1.54 12.62 1.54 12.5 1.5 12.5 1.5 12.5 1.5 12.34 1.5 12.34 1.5 12.34 1.5 12.21 1.59 12.21 1.59 12.21 1.59 12.15 1.83 12.15 1.83 12.15 1.83 12.17 2.09 12.17 2.09 12.17 2.09 12.19 2.31 12.19 2.31 12.19 2.31 12.28 2.55 12.28 2.55 12.28 2.55 12.38 2.74 12.38 2.74 12.38 2.74 12.52 2.96 12.52 2.96 12.52 2.96 12.7 3.16 12.7 3.16 12.7 3.16 12.93 3.38 12.93 3.38 12.93 3.38 12.85 3.42 12.85 3.42 12.85 3.42 12.78 3.52 12.78 3.52 12.78 3.52 12.78 4.33 12.78 4.33 12.78 4.33 12.85 4.49 12.85 4.49 12.85 4.49 12.95 4.63 12.95 4.63 12.95 4.63 13.21 4.87 13.21 4.87 13.21 4.87 13.35 4.96 13.35 4.96 13.35 4.96 13.52 5.08 13.52 5.08 13.52 5.08 13.72 5.18 13.72 5.18 13.72 5.18 13.96 5.3 13.96 5.3 13.96 5.3 14.39 5.5 14.39 5.5 14.39 5.5 14.58 5.6 14.58 5.6 14.58 5.6 14.76 5.72 14.76 5.72 14.76 5.72 15.03 5.92 15.03 5.92 15.03 5.92 15.23 6.11 15.23 6.11 15.23 6.11 15.47 6.13 15.47 6.13 15.47 6.13 15.57 6.13 15.57 6.13 15.57 6.13 15.68 6.15 15.68 6.15 15.68 6.15 15.88 6.13 15.88 6.13 15.88 6.13 16.08 6.09 16.08 6.09 16.08 6.09 16.23 6.02 16.23 6.02 16.23 6.02 16.25 5.98 16.25 5.98 16.25 5.98 16.29 5.96 16.29 5.96 16.29 5.96 16.37 5.92 16.37 5.92 16.37 5.92 16.49 5.8 16.49 5.8 16.49 5.8 16.55 5.68 16.55 5.68 16.55 5.68 16.59 5.66 16.59 5.66 16.59 5.66 16.61 5.38 16.61 5.38 16.61 5.38 16.68 5.16 16.68 5.16 16.68 5.16 16.78 4.94 16.78 4.94 16.78 4.94 16.96 4.79 16.96 4.79 16.96 4.79 17.16 4.61 17.16 4.61 17.16 4.61 17.41 4.49 17.41 4.49 17.41 4.49 17.71 4.37 17.71 4.37 17.71 4.37 18.04 4.29 18.04 4.29 18.04 4.29 18.41 4.17 18.41 4.17 18.41 4.17 18.57 4.11 18.57 4.11 18.57 4.11 18.75 4.07 18.75 4.07 18.75 4.07 19.04 3.95 19.04 3.95 19.04 3.95 19.1 3.91 19.1 3.91 19.1 3.91 19.18 3.89 19.18 3.89 19.18 3.89 19.34 3.85 19.34 3.85 19.34 3.85 19.44 3.78 19.44 3.78 19.44 3.78 19.55 3.72 19.55 3.72 19.55 3.72 19.73 3.6 19.73 3.6 19.73 3.6 19.87 3.44 19.87 3.44 19.87 3.44 20.01 3.32 20.01 3.32 20.01 3.32 20.22 5.52 20.22 5.52 20.22 5.52 20.54 6.04 20.54 6.04 20.54 6.04 20.59 6.19 20.59 6.19 20.59 6.19 20.64 6.35 20.64 6.35 20.64 6.35 20.62 6.51 20.62 6.51 20.62 6.51 20.59 6.67 20.59 6.67 20.59 6.67 20.58 6.79 20.58 6.79 20.58 6.79 20.58 6.89 20.58 6.89 20.58 6.89 20.62 7.03 20.62 7.03 20.62 7.03 20.71 7.3 20.71 7.3 20.71 7.3 20.85 7.68 20.85 7.68 20.85 7.68 20.87 7.8 20.87 7.8 20.87 7.8 20.87 7.86 20.87 7.86 20.87 7.86 20.89 7.94 20.89 7.94 20.89 7.94 20.87 7.98 20.87 7.98 20.87 7.98 20.87 8.04 20.87 8.04 20.87 8.04 20.83 8.16 20.83 8.16 20.83 8.16 20.75 8.22 20.75 8.22 20.75 8.22 20.67 8.29 20.67 8.29 20.67 8.29 20.56 8.33 20.56 8.33 20.56 8.33 20.48 8.35 20.48 8.35 20.48 8.35 20.42 8.39 20.42 8.39 20.42 8.39 20.28 8.65 20.28 8.65 20.28 8.65 20.1 8.97 20.1 8.97 20.1 8.97 19.85 9.31 19.85 9.31 19.85 9.31 19.55 9.72 19.55 9.72 19.55 9.72 19.36 9.92 19.36 9.92 19.36 9.92 19.2 10.12 19.2 10.12 19.2 10.12 18.95 10.47 18.95 10.47 18.95 10.47 18.83 10.61 18.83 10.61 18.83 10.61 18.75 10.75 18.75 10.75 18.75 10.75 18.65 11.01 18.65 11.01 18.65 11.01 18.51 10.83 18.51 10.83 18.51 10.83 18.37 10.69 18.37 10.69 18.37 10.69 18.2 10.57 18.2 10.57 18.2 10.57 17.98 10.51 17.98 10.51 17.98 10.51 17.73 10.46 17.73 10.46 17.73 10.46 17.12 10.46 17.12 10.46 17.12 10.46 16.78 10.51 16.78 10.51 16.78 10.51 15.86 11.01 15.86 11.01 15.86 11.01 15.6 11.19 15.6 11.19 15.6 11.19 15.45 11.41 15.45 11.41 15.45 11.41 15.39 11.63 15.39 11.63 15.39 11.63 15.43 11.88 15.43 11.88 15.43 11.88 15.47 12.12 15.47 12.12 15.47 12.12 15.57 12.38 15.57 12.38 15.57 12.38 15.7 12.64 15.7 12.64 15.7 12.64 15.88 12.91 15.88 12.91 15.88 12.91 16.1 13.19 16.1 13.19 16.1 13.19 16.35 13.49 16.35 13.49 16.35 13.49 16.65 13.78 16.65 13.78 16.65 13.78 17 14.12 17 14.12 17 14.12 17.08 14.06 17.08 14.06 17.08 14.06 17.12 14.04 17.12 14.04 17.12 14.04 17.18 14.06 17.18 14.06 17.18 14.06 17.26 14.1 17.26 14.1 17.26 14.1 17.33 14.2 17.33 14.2 17.33 14.2 17.53 14.26 17.53 14.26 17.53 14.26 17.73 14.26 17.73 14.26 17.73 14.26 17.81 14.22 17.81 14.22 17.81 14.22 17.84 14.2 17.84 14.2 17.84 14.2 17.9 14.2 17.9 14.2 17.9 14.2 18.1 14.08 18.1 14.08 18.1 14.08 18.65 13.53 18.65 13.53 18.65 13.53 18.73 13.61 18.73 13.61 18.73 13.61 18.77 13.78 18.77 13.78 18.77 13.78 18.89 14.02 18.89 14.02 18.89 14.02 19.08 14.28 19.08 14.28 19.08 14.28 19.38 14.58 19.38 14.58 19.38 14.58 19.5 14.7 19.5 14.7 19.5 14.7 19.61 14.84 19.61 14.84 19.61 14.84 19.71 14.95 19.71 14.95 19.71 14.95 19.79 15.09 19.79 15.09 19.79 15.09 19.83 15.19 19.83 15.19 19.83 15.19 19.87 15.31 19.87 15.31 19.87 15.31 19.87 15.53 19.87 15.53 19.87 15.53 19.97 15.65 19.97 15.65 19.97 15.65 20.04 15.81 20.04 15.81 20.04 15.81 20.07 15.98 20.07 15.98 20.07 15.98 20.08 16.22 20.08 16.22 20.08 16.22 20.08 16.72 20.08 16.72 20.08 16.72 20.1 16.88 20.1 16.88 20.1 16.88 20.14 17.02 20.14 17.02 20.14 17.02 20.26 17.07 20.26 17.07 20.26 17.07 20.36 17.21 20.36 17.21 20.36 17.21 20.38 17.27 20.38 17.27 20.38 17.27 20.4 17.37 20.4 17.37 20.4 17.37 20.42 17.59 20.42 17.59 20.42 17.59 20.4 17.77 20.4 17.77 20.4 17.77 20.44 17.95 20.44 17.95 20.44 17.95 20.5 18.05 20.5 18.05 20.5 18.05 20.59 18.15 20.59 18.15 20.59 18.15 20.56 18.16 20.56 18.16 20.56 18.16 20.54 18.21 20.54 18.21 20.54 18.21 20.48 18.28 20.48 18.28 20.48 18.28 20.4 18.34 20.4 18.34 20.4 18.34 20.34 18.42 20.34 18.42 20.34 18.42 20.22 18.46 20.22 18.46 20.22 18.46 20.16 18.46 20.16 18.46 20.16 18.46 20.16 18.48 20.16 18.48 20.16 18.48 20.12 18.52 20.12 18.52 20.12 18.52 19.87 18.6 19.87 18.6 19.87 18.6 19.51 18.64 19.51 18.64 19.51 18.64 19.24 18.72 19.24 18.72 19.24 18.72 19.04 18.76 19.04 18.76 19.04 18.76 18.95 18.84 18.95 18.84 18.95 18.84 19.16 18.88 19.16 18.88 19.16 18.88 19.42 18.94 19.42 18.94 19.42 18.94 19.71 18.96 19.71 18.96 19.71 18.96 20.04 19 20.04 19 20.04 19 20.83 19 20.83 19 20.83 19 21.28 18.98 21.28 18.98 21.28 18.98 21.81 18.96 21.81 18.96 21.81 18.96 21.97 18.92 21.97 18.92 21.97 18.92 22.05 18.9 22.05 18.9 22.05 18.9 22.15 18.9 22.15 18.9 22.15 18.9 22.48 18.86 22.48 18.86 22.48 18.86 22.74 18.78 22.74 18.78 22.74 18.78 22.99 18.7 22.99 18.7 22.99 18.7 23.17 18.58 23.17 18.58 23.17 18.58 23.25 18.52 23.25 18.52 23.25 18.52 23.35 18.48 23.35 18.48 23.35 18.48 23.41 18.4 23.41 18.4 23.41 18.4 23.48 18.34 23.48 18.34 23.48 18.34 23.52 18.26 23.52 18.26 23.52 18.26 23.54 18.22 23.54 18.22 23.54 18.22 23.58 18.21 23.58 18.21 23.58 18.21 23.94 17.51 23.94 17.51 23.94 17.51 23.76 17.02 23.76 17.02 23.76 17.02 23.58 16.58 23.58 16.58 23.58 16.58 23.38 16.14 23.38 16.14 23.38 16.14 23.21 15.77 23.21 15.77 23.21 15.77 22.97 15.39 22.97 15.39 22.97 15.39 22.76 15.07 22.76 15.07 22.76 15.07 22.52 14.76 22.52 14.76 22.52 14.76 22.31 14.5 22.31 14.5 22.31 14.5 22.44 13.77 22.44 13.77 22.44 13.77 22.52 13.31 22.52 13.31 22.52 13.31 22.52 13.11 22.52 13.11 22.52 13.11 22.5 12.93 22.5 12.93 22.5 12.93 22.93 12.58 22.93 12.58 22.93 12.58 23.13 12.4 23.13 12.4 23.13 12.4 23.35 12.24 23.35 12.24 23.35 12.24 23.72 11.88 23.72 11.88 23.72 11.88 24.05 11.53 24.05 11.53 24.05 11.53 24.35 11.13 24.35 11.13 24.35 11.13 24.47 10.93 24.47 10.93 24.47 10.93 24.47 10.89 24.47 10.89 24.47 10.89 24.49 10.87 24.49 10.87 24.49 10.87 24.53 10.83 24.53 10.83 24.53 10.83 24.6 10.75 24.6 10.75 24.6 10.75 24.82 10.36 24.82 10.36 24.82 10.36 25 9.96 25 9.96 25 9.96 24.94 7.9 24.94 7.9ZM 22.32 17.81C 22.32 17.81 22.44 17.91 22.44 17.91 22.44 17.91 22.58 17.97 22.58 17.97 22.58 17.97 22.19 18.6 22.19 18.6 22.19 18.6 21.58 18.6 21.58 18.6 21.58 18.6 21.52 18.11 21.52 18.11 21.52 18.11 21.54 17.77 21.54 17.77 21.54 17.77 21.56 17.63 21.56 17.63 21.56 17.63 21.62 17.55 21.62 17.55 21.62 17.55 21.68 17.47 21.68 17.47 21.68 17.47 21.77 17.45 21.77 17.45 21.77 17.45 21.77 16.92 21.77 16.92 21.77 16.92 21.83 16.98 21.83 16.98 21.83 16.98 21.91 17.09 21.91 17.09 21.91 17.09 22.01 17.27 22.01 17.27 22.01 17.27 22.21 17.67 22.21 17.67 22.21 17.67 22.32 17.81 22.32 17.81Z"/>
</svg>